<mxfile host="65bd71144e">
    <diagram id="hE4mo4QMDYe9P9eZbAD1" name="Page-1">
        <mxGraphModel dx="861" dy="782" grid="1" gridSize="10" guides="1" tooltips="1" connect="1" arrows="1" fold="1" page="1" pageScale="1" pageWidth="850" pageHeight="1100" math="0" shadow="0">
            <root>
                <mxCell id="0"/>
                <mxCell id="1" parent="0"/>
                <mxCell id="4" style="edgeStyle=none;html=1;exitX=0;exitY=0.5;exitDx=0;exitDy=0;entryX=1;entryY=0.5;entryDx=0;entryDy=0;fontSize=12;" edge="1" parent="1" source="2" target="3">
                    <mxGeometry relative="1" as="geometry"/>
                </mxCell>
                <mxCell id="9" style="edgeStyle=none;html=1;exitX=1;exitY=0.5;exitDx=0;exitDy=0;entryX=0;entryY=0.5;entryDx=0;entryDy=0;fontSize=12;" edge="1" parent="1" source="2" target="7">
                    <mxGeometry relative="1" as="geometry"/>
                </mxCell>
                <mxCell id="10" style="edgeStyle=none;html=1;exitX=0.5;exitY=0;exitDx=0;exitDy=0;entryX=0.5;entryY=1;entryDx=0;entryDy=0;fontSize=12;" edge="1" parent="1" source="2" target="6">
                    <mxGeometry relative="1" as="geometry"/>
                </mxCell>
                <mxCell id="11" style="edgeStyle=none;html=1;exitX=0.5;exitY=1;exitDx=0;exitDy=0;entryX=0.5;entryY=0;entryDx=0;entryDy=0;fontSize=12;" edge="1" parent="1" source="2" target="8">
                    <mxGeometry relative="1" as="geometry"/>
                </mxCell>
                <mxCell id="14" style="edgeStyle=none;html=1;exitX=0.5;exitY=1;exitDx=0;exitDy=0;entryX=0.5;entryY=0;entryDx=0;entryDy=0;fontSize=12;" edge="1" parent="1" source="2" target="13">
                    <mxGeometry relative="1" as="geometry"/>
                </mxCell>
                <mxCell id="15" style="edgeStyle=none;html=1;exitX=0.5;exitY=1;exitDx=0;exitDy=0;entryX=0.5;entryY=0;entryDx=0;entryDy=0;fontSize=12;" edge="1" parent="1" source="2" target="12">
                    <mxGeometry relative="1" as="geometry"/>
                </mxCell>
                <mxCell id="2" value="&lt;font size=&quot;3&quot;&gt;RuralRise&lt;br&gt;Features&lt;/font&gt;" style="ellipse;whiteSpace=wrap;html=1;fillColor=#0050ef;fontColor=#ffffff;strokeColor=#001DBC;" vertex="1" parent="1">
                    <mxGeometry x="360" y="370" width="130" height="80" as="geometry"/>
                </mxCell>
                <mxCell id="3" value="&lt;div style=&quot;&quot;&gt;&lt;b style=&quot;background-color: initial; font-size: 18px;&quot;&gt;Marketplace&lt;/b&gt;&lt;/div&gt;&lt;font style=&quot;&quot;&gt;&lt;div style=&quot;&quot;&gt;&lt;span style=&quot;background-color: initial; font-size: 12px;&quot;&gt;- Anyone using rural rise can purchase products from our marketplace&lt;/span&gt;&lt;br&gt;&lt;span style=&quot;background-color: initial; font-size: 12px;&quot;&gt;- Enterpreneurs can add new products to the marketplace so they get a platform to sell their products&lt;/span&gt;&lt;br&gt;&lt;/div&gt;&lt;/font&gt;" style="whiteSpace=wrap;html=1;fontSize=14;" vertex="1" parent="1">
                    <mxGeometry x="140" y="325" width="180" height="170" as="geometry"/>
                </mxCell>
                <mxCell id="6" value="&lt;div style=&quot;&quot;&gt;&lt;span style=&quot;background-color: initial; font-size: 18px;&quot;&gt;&lt;b&gt;Learn and Tutorials&lt;/b&gt;&lt;/span&gt;&lt;/div&gt;&lt;div style=&quot;&quot;&gt;&lt;span style=&quot;background-color: initial; font-size: 12px;&quot;&gt;- Contains multilanguage support&amp;nbsp;&lt;/span&gt;&lt;/div&gt;&lt;div style=&quot;&quot;&gt;&lt;span style=&quot;font-size: 12px;&quot;&gt;- Women can view video lectures, articlles, and courses in different languages for ease.&lt;/span&gt;&lt;/div&gt;&lt;div style=&quot;&quot;&gt;&lt;span style=&quot;font-size: 12px;&quot;&gt;- This helps them learn and grow professionally&lt;/span&gt;&lt;/div&gt;" style="whiteSpace=wrap;html=1;fontSize=14;" vertex="1" parent="1">
                    <mxGeometry x="335" y="130" width="180" height="170" as="geometry"/>
                </mxCell>
                <mxCell id="7" value="&lt;div style=&quot;&quot;&gt;&lt;span style=&quot;background-color: initial; font-size: 18px;&quot;&gt;&lt;b&gt;Community&lt;/b&gt;&lt;/span&gt;&lt;/div&gt;&lt;div style=&quot;&quot;&gt;&lt;span style=&quot;background-color: initial; font-size: 12px;&quot;&gt;- all the women enterpreneurs, all the mentors and all the People/mentors making the courses or literally anyone can join or community&lt;/span&gt;&lt;/div&gt;&lt;div style=&quot;&quot;&gt;&lt;span style=&quot;background-color: initial; font-size: 12px;&quot;&gt;- The community is set up as a discord server&lt;/span&gt;&lt;/div&gt;" style="whiteSpace=wrap;html=1;fontSize=14;" vertex="1" parent="1">
                    <mxGeometry x="530" y="325" width="180" height="170" as="geometry"/>
                </mxCell>
                <mxCell id="8" value="&lt;div style=&quot;&quot;&gt;&lt;span style=&quot;background-color: initial; font-size: 18px;&quot;&gt;&lt;b&gt;Contact&lt;/b&gt;&lt;/span&gt;&lt;/div&gt;&lt;div style=&quot;&quot;&gt;&lt;span style=&quot;background-color: initial; font-size: 12px;&quot;&gt;- Anyone can contact RuralRise through email forms in case of any issues and we will get back to them as soon as we can!&lt;/span&gt;&lt;/div&gt;" style="whiteSpace=wrap;html=1;fontSize=14;" vertex="1" parent="1">
                    <mxGeometry x="335" y="610" width="180" height="110" as="geometry"/>
                </mxCell>
                <mxCell id="12" value="&lt;div style=&quot;&quot;&gt;&lt;span style=&quot;background-color: initial; font-size: 18px;&quot;&gt;&lt;b&gt;Success Stories&lt;/b&gt;&lt;/span&gt;&lt;/div&gt;&lt;div style=&quot;&quot;&gt;&lt;span style=&quot;background-color: initial; font-size: 12px;&quot;&gt;- Contains motivational stories of women who became succesful and how the women using our platform can too&lt;/span&gt;&lt;br&gt;&lt;/div&gt;" style="whiteSpace=wrap;html=1;fontSize=14;" vertex="1" parent="1">
                    <mxGeometry x="530" y="610" width="180" height="110" as="geometry"/>
                </mxCell>
                <mxCell id="13" value="&lt;div style=&quot;&quot;&gt;&lt;span style=&quot;background-color: initial; font-size: 18px;&quot;&gt;&lt;b&gt;Blogs&lt;/b&gt;&lt;/span&gt;&lt;/div&gt;&lt;div style=&quot;&quot;&gt;&lt;span style=&quot;background-color: initial; font-size: 12px;&quot;&gt;- Anyone can view the blogs we post on our website to stay up to date with latest trends and activities!&lt;/span&gt;&lt;br&gt;&lt;/div&gt;" style="whiteSpace=wrap;html=1;fontSize=14;" vertex="1" parent="1">
                    <mxGeometry x="140" y="610" width="180" height="110" as="geometry"/>
                </mxCell>
            </root>
        </mxGraphModel>
    </diagram>
</mxfile>